<mxfile host="app.diagrams.net" modified="2023-05-08T09:15:29.486Z" agent="Mozilla/5.0 (Windows NT 10.0; Win64; x64) AppleWebKit/537.36 (KHTML, like Gecko) Chrome/112.0.0.0 Safari/537.36" etag="4A6RJ4bb3lYw9yTIbkji" version="21.2.9" type="device">
  <diagram id="C5RBs43oDa-KdzZeNtuy" name="Page-1">
    <mxGraphModel dx="1434" dy="834" grid="1" gridSize="10" guides="1" tooltips="1" connect="1" arrows="1" fold="1" page="1" pageScale="1" pageWidth="827" pageHeight="1169" math="0" shadow="0">
      <root>
        <mxCell id="WIyWlLk6GJQsqaUBKTNV-0" />
        <mxCell id="WIyWlLk6GJQsqaUBKTNV-1" parent="WIyWlLk6GJQsqaUBKTNV-0" />
        <mxCell id="IqQrxniCJe7T8JLHDdd1-2" value="&lt;div style=&quot;box-sizing: border-box ; width: 100% ; padding: 2px&quot;&gt;&lt;span style=&quot;background-color: rgb(255 , 255 , 255)&quot;&gt;&lt;b&gt;Utilisateurs&lt;/b&gt;&lt;/span&gt;&lt;/div&gt;&lt;hr&gt;&lt;table style=&quot;width: 100% ; font-size: 1em&quot; cellpadding=&quot;2&quot; cellspacing=&quot;0&quot;&gt;&lt;tbody&gt;&lt;tr&gt;&lt;td style=&quot;text-align: left&quot;&gt;Nom&lt;/td&gt;&lt;td style=&quot;text-align: right&quot;&gt;Texte&lt;/td&gt;&lt;/tr&gt;&lt;tr&gt;&lt;td style=&quot;text-align: left&quot;&gt;Prénom&lt;br&gt;&lt;/td&gt;&lt;td style=&quot;text-align: right&quot;&gt;Texte&lt;/td&gt;&lt;/tr&gt;&lt;tr&gt;&lt;td style=&quot;text-align: left&quot;&gt;&lt;u&gt;Email&lt;/u&gt;&lt;/td&gt;&lt;td style=&quot;text-align: right&quot;&gt;Texte&lt;/td&gt;&lt;/tr&gt;&lt;tr&gt;&lt;td style=&quot;text-align: left&quot;&gt;Tél&lt;/td&gt;&lt;td style=&quot;text-align: right&quot;&gt;Numérique&lt;/td&gt;&lt;/tr&gt;&lt;tr&gt;&lt;td style=&quot;text-align: left&quot;&gt;Mot de passe&lt;/td&gt;&lt;td style=&quot;text-align: right&quot;&gt;Texte&lt;/td&gt;&lt;/tr&gt;&lt;tr&gt;&lt;td style=&quot;text-align: left&quot;&gt;UserType&lt;/td&gt;&lt;td style=&quot;text-align: right&quot;&gt;Numérique&lt;/td&gt;&lt;/tr&gt;&lt;/tbody&gt;&lt;/table&gt;" style="verticalAlign=top;align=center;overflow=fill;html=1;rounded=0;shadow=0;comic=0;labelBackgroundColor=none;strokeColor=#000000;strokeWidth=1;fillColor=#ffffff;fontFamily=Verdana;fontSize=12;fontColor=#000000;" parent="WIyWlLk6GJQsqaUBKTNV-1" vertex="1">
          <mxGeometry x="314" y="25" width="200" height="140" as="geometry" />
        </mxCell>
        <mxCell id="IqQrxniCJe7T8JLHDdd1-22" value="" style="shape=table;html=1;whiteSpace=wrap;startSize=0;container=1;collapsible=0;childLayout=tableLayout;fillColor=#dae8fc;strokeColor=#6c8ebf;" parent="WIyWlLk6GJQsqaUBKTNV-1" vertex="1">
          <mxGeometry x="20" y="25" width="280" height="135" as="geometry" />
        </mxCell>
        <mxCell id="IqQrxniCJe7T8JLHDdd1-23" value="" style="shape=partialRectangle;html=1;whiteSpace=wrap;collapsible=0;dropTarget=0;pointerEvents=0;fillColor=none;top=0;left=0;bottom=0;right=0;points=[[0,0.5],[1,0.5]];portConstraint=eastwest;" parent="IqQrxniCJe7T8JLHDdd1-22" vertex="1">
          <mxGeometry width="280" height="34" as="geometry" />
        </mxCell>
        <mxCell id="IqQrxniCJe7T8JLHDdd1-24" value="Auteur" style="shape=partialRectangle;html=1;whiteSpace=wrap;connectable=0;fillColor=none;top=0;left=0;bottom=0;right=0;overflow=hidden;" parent="IqQrxniCJe7T8JLHDdd1-23" vertex="1">
          <mxGeometry width="69" height="34" as="geometry">
            <mxRectangle width="69" height="34" as="alternateBounds" />
          </mxGeometry>
        </mxCell>
        <mxCell id="IqQrxniCJe7T8JLHDdd1-25" value="Axel Pittet" style="shape=partialRectangle;html=1;whiteSpace=wrap;connectable=0;fillColor=none;top=0;left=0;bottom=0;right=0;overflow=hidden;" parent="IqQrxniCJe7T8JLHDdd1-23" vertex="1">
          <mxGeometry x="69" width="211" height="34" as="geometry">
            <mxRectangle width="211" height="34" as="alternateBounds" />
          </mxGeometry>
        </mxCell>
        <mxCell id="IqQrxniCJe7T8JLHDdd1-26" value="" style="shape=partialRectangle;html=1;whiteSpace=wrap;collapsible=0;dropTarget=0;pointerEvents=0;fillColor=none;top=0;left=0;bottom=0;right=0;points=[[0,0.5],[1,0.5]];portConstraint=eastwest;" parent="IqQrxniCJe7T8JLHDdd1-22" vertex="1">
          <mxGeometry y="34" width="280" height="34" as="geometry" />
        </mxCell>
        <mxCell id="IqQrxniCJe7T8JLHDdd1-27" value="Projet" style="shape=partialRectangle;html=1;whiteSpace=wrap;connectable=0;fillColor=none;top=0;left=0;bottom=0;right=0;overflow=hidden;" parent="IqQrxniCJe7T8JLHDdd1-26" vertex="1">
          <mxGeometry width="69" height="34" as="geometry">
            <mxRectangle width="69" height="34" as="alternateBounds" />
          </mxGeometry>
        </mxCell>
        <mxCell id="IqQrxniCJe7T8JLHDdd1-28" value="MCD TPI" style="shape=partialRectangle;html=1;whiteSpace=wrap;connectable=0;fillColor=none;top=0;left=0;bottom=0;right=0;overflow=hidden;" parent="IqQrxniCJe7T8JLHDdd1-26" vertex="1">
          <mxGeometry x="69" width="211" height="34" as="geometry">
            <mxRectangle width="211" height="34" as="alternateBounds" />
          </mxGeometry>
        </mxCell>
        <mxCell id="IqQrxniCJe7T8JLHDdd1-29" value="" style="shape=partialRectangle;html=1;whiteSpace=wrap;collapsible=0;dropTarget=0;pointerEvents=0;fillColor=none;top=0;left=0;bottom=0;right=0;points=[[0,0.5],[1,0.5]];portConstraint=eastwest;" parent="IqQrxniCJe7T8JLHDdd1-22" vertex="1">
          <mxGeometry y="68" width="280" height="33" as="geometry" />
        </mxCell>
        <mxCell id="IqQrxniCJe7T8JLHDdd1-30" value="Version" style="shape=partialRectangle;html=1;whiteSpace=wrap;connectable=0;fillColor=none;top=0;left=0;bottom=0;right=0;overflow=hidden;" parent="IqQrxniCJe7T8JLHDdd1-29" vertex="1">
          <mxGeometry width="69" height="33" as="geometry">
            <mxRectangle width="69" height="33" as="alternateBounds" />
          </mxGeometry>
        </mxCell>
        <mxCell id="IqQrxniCJe7T8JLHDdd1-31" value="2.0" style="shape=partialRectangle;html=1;whiteSpace=wrap;connectable=0;fillColor=none;top=0;left=0;bottom=0;right=0;overflow=hidden;" parent="IqQrxniCJe7T8JLHDdd1-29" vertex="1">
          <mxGeometry x="69" width="211" height="33" as="geometry">
            <mxRectangle width="211" height="33" as="alternateBounds" />
          </mxGeometry>
        </mxCell>
        <mxCell id="IqQrxniCJe7T8JLHDdd1-32" style="shape=partialRectangle;html=1;whiteSpace=wrap;collapsible=0;dropTarget=0;pointerEvents=0;fillColor=none;top=0;left=0;bottom=0;right=0;points=[[0,0.5],[1,0.5]];portConstraint=eastwest;" parent="IqQrxniCJe7T8JLHDdd1-22" vertex="1">
          <mxGeometry y="101" width="280" height="34" as="geometry" />
        </mxCell>
        <mxCell id="IqQrxniCJe7T8JLHDdd1-33" value="Date" style="shape=partialRectangle;html=1;whiteSpace=wrap;connectable=0;fillColor=none;top=0;left=0;bottom=0;right=0;overflow=hidden;" parent="IqQrxniCJe7T8JLHDdd1-32" vertex="1">
          <mxGeometry width="69" height="34" as="geometry">
            <mxRectangle width="69" height="34" as="alternateBounds" />
          </mxGeometry>
        </mxCell>
        <mxCell id="IqQrxniCJe7T8JLHDdd1-34" value="08.05.2023" style="shape=partialRectangle;html=1;whiteSpace=wrap;connectable=0;fillColor=none;top=0;left=0;bottom=0;right=0;overflow=hidden;" parent="IqQrxniCJe7T8JLHDdd1-32" vertex="1">
          <mxGeometry x="69" width="211" height="34" as="geometry">
            <mxRectangle width="211" height="34" as="alternateBounds" />
          </mxGeometry>
        </mxCell>
        <mxCell id="2Zk0imyAjGkuNJH0pTG6-1" value="&lt;div style=&quot;box-sizing: border-box ; width: 100% ; padding: 2px&quot;&gt;&lt;span style=&quot;background-color: rgb(255 , 255 , 255)&quot;&gt;&lt;b&gt;&lt;u&gt;Proposer&lt;/u&gt;&lt;/b&gt;&lt;/span&gt;&lt;/div&gt;&lt;hr&gt;" style="verticalAlign=top;align=center;overflow=fill;html=1;rounded=1;shadow=0;comic=0;labelBackgroundColor=none;strokeColor=#000000;strokeWidth=1;fillColor=#ffffff;fontFamily=Verdana;fontSize=12;fontColor=#000000;" parent="WIyWlLk6GJQsqaUBKTNV-1" vertex="1">
          <mxGeometry x="324" y="250" width="180" height="70" as="geometry" />
        </mxCell>
        <mxCell id="y70K4fB0TFs47g8UJoZK-2" value="&lt;div style=&quot;box-sizing: border-box ; width: 100% ; padding: 2px&quot;&gt;&lt;span style=&quot;background-color: rgb(255 , 255 , 255)&quot;&gt;&lt;b&gt;Locations&lt;/b&gt;&lt;/span&gt;&lt;/div&gt;&lt;hr&gt;&lt;table style=&quot;width: 100% ; font-size: 1em&quot; cellpadding=&quot;2&quot; cellspacing=&quot;0&quot;&gt;&lt;tbody&gt;&lt;tr&gt;&lt;td style=&quot;text-align: left&quot;&gt;&lt;u&gt;Numéro de location&lt;/u&gt;&lt;br&gt;Nom&lt;/td&gt;&lt;td style=&quot;text-align: right&quot;&gt;Numérique&lt;br&gt;Texte&lt;/td&gt;&lt;/tr&gt;&lt;tr&gt;&lt;td style=&quot;text-align: left&quot;&gt;Lieu&lt;br&gt;Description&lt;br&gt;&lt;/td&gt;&lt;td style=&quot;text-align: right&quot;&gt;Texte&lt;br&gt;Texte&lt;br&gt;&lt;/td&gt;&lt;/tr&gt;&lt;tr&gt;&lt;td style=&quot;text-align: left&quot;&gt;Type de logement&lt;/td&gt;&lt;td style=&quot;text-align: right&quot;&gt;Texte&lt;/td&gt;&lt;/tr&gt;&lt;tr&gt;&lt;td style=&quot;text-align: left&quot;&gt;Nombre max de clients&lt;/td&gt;&lt;td style=&quot;text-align: right&quot;&gt;Numérique&lt;/td&gt;&lt;/tr&gt;&lt;tr&gt;&lt;td style=&quot;text-align: left&quot;&gt;Prix par nuit&lt;/td&gt;&lt;td style=&quot;text-align: right&quot;&gt;Numérique&lt;/td&gt;&lt;/tr&gt;&lt;tr&gt;&lt;td style=&quot;text-align: left&quot;&gt;&lt;br&gt;&lt;/td&gt;&lt;td style=&quot;text-align: right&quot;&gt;&lt;/td&gt;&lt;/tr&gt;&lt;/tbody&gt;&lt;/table&gt;" style="verticalAlign=top;align=center;overflow=fill;html=1;rounded=0;shadow=0;comic=0;labelBackgroundColor=none;strokeColor=#000000;strokeWidth=1;fillColor=#ffffff;fontFamily=Verdana;fontSize=12;fontColor=#000000;" parent="WIyWlLk6GJQsqaUBKTNV-1" vertex="1">
          <mxGeometry x="293" y="385" width="241" height="150" as="geometry" />
        </mxCell>
        <mxCell id="y70K4fB0TFs47g8UJoZK-3" value="&lt;div style=&quot;box-sizing: border-box ; width: 100% ; padding: 2px&quot;&gt;&lt;span style=&quot;background-color: rgb(255 , 255 , 255)&quot;&gt;&lt;b&gt;Réservations&lt;/b&gt;&lt;/span&gt;&lt;/div&gt;&lt;hr&gt;&lt;table style=&quot;width: 100% ; font-size: 1em&quot; cellpadding=&quot;2&quot; cellspacing=&quot;0&quot;&gt;&lt;tbody&gt;&lt;tr&gt;&lt;td style=&quot;text-align: left&quot;&gt;&lt;u&gt;Numéro de réservation&lt;/u&gt;&lt;/td&gt;&lt;td style=&quot;text-align: right&quot;&gt;Numérique&lt;/td&gt;&lt;/tr&gt;&lt;tr&gt;&lt;td style=&quot;text-align: left&quot;&gt;Date de début&lt;/td&gt;&lt;td style=&quot;text-align: right&quot;&gt;Date&lt;/td&gt;&lt;/tr&gt;&lt;tr&gt;&lt;td style=&quot;text-align: left&quot;&gt;Date de fin&lt;/td&gt;&lt;td style=&quot;text-align: right&quot;&gt;Date&lt;/td&gt;&lt;/tr&gt;&lt;tr&gt;&lt;td style=&quot;text-align: left&quot;&gt;Prix&lt;/td&gt;&lt;td style=&quot;text-align: right&quot;&gt;Numérique&lt;/td&gt;&lt;/tr&gt;&lt;tr&gt;&lt;td style=&quot;text-align: left&quot;&gt;&lt;br&gt;&lt;/td&gt;&lt;td style=&quot;text-align: right&quot;&gt;&lt;br&gt;&lt;/td&gt;&lt;/tr&gt;&lt;tr&gt;&lt;td style=&quot;text-align: left&quot;&gt;&lt;br&gt;&lt;/td&gt;&lt;td style=&quot;text-align: right&quot;&gt;&lt;br&gt;&lt;/td&gt;&lt;/tr&gt;&lt;/tbody&gt;&lt;/table&gt;" style="verticalAlign=top;align=center;overflow=fill;html=1;rounded=0;shadow=0;comic=0;labelBackgroundColor=none;strokeColor=#000000;strokeWidth=1;fillColor=#ffffff;fontFamily=Verdana;fontSize=12;fontColor=#000000;" parent="WIyWlLk6GJQsqaUBKTNV-1" vertex="1">
          <mxGeometry x="585" y="240" width="230" height="110" as="geometry" />
        </mxCell>
        <mxCell id="y70K4fB0TFs47g8UJoZK-4" value="&lt;div style=&quot;box-sizing: border-box ; width: 100% ; padding: 2px&quot;&gt;&lt;span style=&quot;background-color: rgb(255 , 255 , 255)&quot;&gt;&lt;b&gt;Images&lt;/b&gt;&lt;/span&gt;&lt;/div&gt;&lt;hr&gt;&lt;table style=&quot;width: 100% ; font-size: 1em&quot; cellpadding=&quot;2&quot; cellspacing=&quot;0&quot;&gt;&lt;tbody&gt;&lt;tr&gt;&lt;td style=&quot;text-align: left&quot;&gt;&lt;u&gt;Nom&lt;/u&gt;&lt;/td&gt;&lt;td style=&quot;text-align: right&quot;&gt;Texte&lt;/td&gt;&lt;/tr&gt;&lt;tr&gt;&lt;td style=&quot;text-align: left&quot;&gt;&lt;br&gt;&lt;/td&gt;&lt;td style=&quot;text-align: right&quot;&gt;&lt;br&gt;&lt;/td&gt;&lt;/tr&gt;&lt;tr&gt;&lt;td style=&quot;text-align: left&quot;&gt;&lt;/td&gt;&lt;td style=&quot;text-align: right&quot;&gt;&lt;br&gt;&lt;/td&gt;&lt;/tr&gt;&lt;tr&gt;&lt;td style=&quot;text-align: left&quot;&gt;&lt;br&gt;&lt;/td&gt;&lt;td style=&quot;text-align: right&quot;&gt;&lt;br&gt;&lt;/td&gt;&lt;/tr&gt;&lt;tr&gt;&lt;td style=&quot;text-align: left&quot;&gt;&lt;br&gt;&lt;/td&gt;&lt;td style=&quot;text-align: right&quot;&gt;&lt;br&gt;&lt;/td&gt;&lt;/tr&gt;&lt;tr&gt;&lt;td style=&quot;text-align: left&quot;&gt;&lt;br&gt;&lt;/td&gt;&lt;td style=&quot;text-align: right&quot;&gt;&lt;br&gt;&lt;/td&gt;&lt;/tr&gt;&lt;/tbody&gt;&lt;/table&gt;" style="verticalAlign=top;align=center;overflow=fill;html=1;rounded=0;shadow=0;comic=0;labelBackgroundColor=none;strokeColor=#000000;strokeWidth=1;fillColor=#ffffff;fontFamily=Verdana;fontSize=12;fontColor=#000000;" parent="WIyWlLk6GJQsqaUBKTNV-1" vertex="1">
          <mxGeometry x="20" y="260" width="200" height="50" as="geometry" />
        </mxCell>
        <mxCell id="y70K4fB0TFs47g8UJoZK-5" value="&lt;div style=&quot;box-sizing: border-box ; width: 100% ; padding: 2px&quot;&gt;&lt;span style=&quot;background-color: rgb(255 , 255 , 255)&quot;&gt;&lt;b&gt;&lt;u&gt;Créer&lt;/u&gt;&lt;/b&gt;&lt;/span&gt;&lt;/div&gt;&lt;hr&gt;" style="verticalAlign=top;align=center;overflow=fill;html=1;rounded=1;shadow=0;comic=0;labelBackgroundColor=none;strokeColor=#000000;strokeWidth=1;fillColor=#ffffff;fontFamily=Verdana;fontSize=12;fontColor=#000000;" parent="WIyWlLk6GJQsqaUBKTNV-1" vertex="1">
          <mxGeometry x="610" y="60" width="180" height="70" as="geometry" />
        </mxCell>
        <mxCell id="y70K4fB0TFs47g8UJoZK-6" value="&lt;div style=&quot;box-sizing: border-box ; width: 100% ; padding: 2px&quot;&gt;&lt;span style=&quot;background-color: rgb(255 , 255 , 255)&quot;&gt;&lt;b&gt;&lt;u&gt;Contenir&lt;/u&gt;&lt;/b&gt;&lt;/span&gt;&lt;/div&gt;&lt;hr&gt;" style="verticalAlign=top;align=center;overflow=fill;html=1;rounded=1;shadow=0;comic=0;labelBackgroundColor=none;strokeColor=#000000;strokeWidth=1;fillColor=#ffffff;fontFamily=Verdana;fontSize=12;fontColor=#000000;" parent="WIyWlLk6GJQsqaUBKTNV-1" vertex="1">
          <mxGeometry x="610" y="425" width="180" height="70" as="geometry" />
        </mxCell>
        <mxCell id="y70K4fB0TFs47g8UJoZK-7" value="&lt;div style=&quot;box-sizing: border-box ; width: 100% ; padding: 2px&quot;&gt;&lt;span style=&quot;background-color: rgb(255 , 255 , 255)&quot;&gt;&lt;b&gt;&lt;u&gt;Posséder&lt;/u&gt;&lt;/b&gt;&lt;/span&gt;&lt;/div&gt;&lt;hr&gt;" style="verticalAlign=top;align=center;overflow=fill;html=1;rounded=1;shadow=0;comic=0;labelBackgroundColor=none;strokeColor=#000000;strokeWidth=1;fillColor=#ffffff;fontFamily=Verdana;fontSize=12;fontColor=#000000;" parent="WIyWlLk6GJQsqaUBKTNV-1" vertex="1">
          <mxGeometry x="30" y="425" width="180" height="70" as="geometry" />
        </mxCell>
        <mxCell id="y70K4fB0TFs47g8UJoZK-8" value="&lt;font style=&quot;font-size: 15px;&quot;&gt;0,n&lt;/font&gt;" style="endArrow=none;html=1;rounded=0;entryX=0.5;entryY=1;entryDx=0;entryDy=0;exitX=0.5;exitY=0;exitDx=0;exitDy=0;" parent="WIyWlLk6GJQsqaUBKTNV-1" source="2Zk0imyAjGkuNJH0pTG6-1" target="IqQrxniCJe7T8JLHDdd1-2" edge="1">
          <mxGeometry width="50" height="50" relative="1" as="geometry">
            <mxPoint x="370" y="250" as="sourcePoint" />
            <mxPoint x="420" y="200" as="targetPoint" />
          </mxGeometry>
        </mxCell>
        <mxCell id="y70K4fB0TFs47g8UJoZK-9" value="&lt;font style=&quot;font-size: 15px;&quot;&gt;1.1&lt;/font&gt;" style="endArrow=none;html=1;rounded=0;entryX=0.5;entryY=1;entryDx=0;entryDy=0;exitX=0.5;exitY=0;exitDx=0;exitDy=0;" parent="WIyWlLk6GJQsqaUBKTNV-1" source="y70K4fB0TFs47g8UJoZK-6" target="y70K4fB0TFs47g8UJoZK-3" edge="1">
          <mxGeometry width="50" height="50" relative="1" as="geometry">
            <mxPoint x="424" y="260" as="sourcePoint" />
            <mxPoint x="424" y="180" as="targetPoint" />
          </mxGeometry>
        </mxCell>
        <mxCell id="y70K4fB0TFs47g8UJoZK-10" value="&lt;font style=&quot;font-size: 15px;&quot;&gt;1,1&lt;/font&gt;" style="endArrow=none;html=1;rounded=0;entryX=0.5;entryY=1;entryDx=0;entryDy=0;exitX=0.5;exitY=0;exitDx=0;exitDy=0;" parent="WIyWlLk6GJQsqaUBKTNV-1" source="y70K4fB0TFs47g8UJoZK-3" target="y70K4fB0TFs47g8UJoZK-5" edge="1">
          <mxGeometry width="50" height="50" relative="1" as="geometry">
            <mxPoint x="434" y="270" as="sourcePoint" />
            <mxPoint x="434" y="190" as="targetPoint" />
          </mxGeometry>
        </mxCell>
        <mxCell id="y70K4fB0TFs47g8UJoZK-11" value="&lt;font style=&quot;font-size: 15px;&quot;&gt;0,n&lt;/font&gt;" style="endArrow=none;html=1;rounded=0;entryX=0;entryY=0.5;entryDx=0;entryDy=0;exitX=1;exitY=0.5;exitDx=0;exitDy=0;" parent="WIyWlLk6GJQsqaUBKTNV-1" source="IqQrxniCJe7T8JLHDdd1-2" target="y70K4fB0TFs47g8UJoZK-5" edge="1">
          <mxGeometry width="50" height="50" relative="1" as="geometry">
            <mxPoint x="444" y="280" as="sourcePoint" />
            <mxPoint x="444" y="200" as="targetPoint" />
          </mxGeometry>
        </mxCell>
        <mxCell id="y70K4fB0TFs47g8UJoZK-13" value="&lt;font style=&quot;font-size: 15px;&quot;&gt;1,1&lt;/font&gt;" style="endArrow=none;html=1;rounded=0;entryX=0.5;entryY=1;entryDx=0;entryDy=0;exitX=0.5;exitY=0;exitDx=0;exitDy=0;" parent="WIyWlLk6GJQsqaUBKTNV-1" source="y70K4fB0TFs47g8UJoZK-7" target="y70K4fB0TFs47g8UJoZK-4" edge="1">
          <mxGeometry width="50" height="50" relative="1" as="geometry">
            <mxPoint x="720" y="445" as="sourcePoint" />
            <mxPoint x="720" y="350" as="targetPoint" />
          </mxGeometry>
        </mxCell>
        <mxCell id="y70K4fB0TFs47g8UJoZK-14" value="&lt;font style=&quot;font-size: 15px;&quot;&gt;1,n&lt;/font&gt;" style="endArrow=none;html=1;rounded=0;entryX=1;entryY=0.5;entryDx=0;entryDy=0;exitX=0;exitY=0.5;exitDx=0;exitDy=0;" parent="WIyWlLk6GJQsqaUBKTNV-1" source="y70K4fB0TFs47g8UJoZK-2" target="y70K4fB0TFs47g8UJoZK-7" edge="1">
          <mxGeometry width="50" height="50" relative="1" as="geometry">
            <mxPoint x="730" y="455" as="sourcePoint" />
            <mxPoint x="730" y="360" as="targetPoint" />
          </mxGeometry>
        </mxCell>
        <mxCell id="y70K4fB0TFs47g8UJoZK-15" value="&lt;font style=&quot;font-size: 15px;&quot;&gt;1,1&lt;/font&gt;" style="endArrow=none;html=1;rounded=0;entryX=0.5;entryY=1;entryDx=0;entryDy=0;exitX=0.5;exitY=0;exitDx=0;exitDy=0;" parent="WIyWlLk6GJQsqaUBKTNV-1" source="y70K4fB0TFs47g8UJoZK-2" target="2Zk0imyAjGkuNJH0pTG6-1" edge="1">
          <mxGeometry width="50" height="50" relative="1" as="geometry">
            <mxPoint x="740" y="465" as="sourcePoint" />
            <mxPoint x="740" y="370" as="targetPoint" />
          </mxGeometry>
        </mxCell>
        <mxCell id="y70K4fB0TFs47g8UJoZK-16" value="&lt;font style=&quot;font-size: 15px;&quot;&gt;0,n&lt;/font&gt;" style="endArrow=none;html=1;rounded=0;entryX=1;entryY=0.5;entryDx=0;entryDy=0;exitX=0;exitY=0.5;exitDx=0;exitDy=0;" parent="WIyWlLk6GJQsqaUBKTNV-1" source="y70K4fB0TFs47g8UJoZK-6" target="y70K4fB0TFs47g8UJoZK-2" edge="1">
          <mxGeometry width="50" height="50" relative="1" as="geometry">
            <mxPoint x="750" y="475" as="sourcePoint" />
            <mxPoint x="750" y="380" as="targetPoint" />
          </mxGeometry>
        </mxCell>
      </root>
    </mxGraphModel>
  </diagram>
</mxfile>
